<svg xmlns="http://www.w3.org/2000/svg" width="1200" height="630" viewBox="0 0 1200 630"><path fill="#fefbfb" d="M0 0h1200v630H0z"/><defs><clipPath id="a"><path d="M109 39h1048a4 4 0 0 1 4 4v496a4 4 0 0 1-4 4H109a4 4 0 0 1-4-4V43a4 4 0 0 1 4-4"/></clipPath></defs><g opacity=".9"><path fill="#ecebeb" d="M109 39h1048a4 4 0 0 1 4 4v496a4 4 0 0 1-4 4H109a4 4 0 0 1-4-4V43a4 4 0 0 1 4-4"/><path fill="none" stroke="#000" stroke-width="8" d="M106.172 40.172A4 4 0 0 1 109 39h1048a4 4 0 0 1 4 4v496a4 4 0 0 1-4 4H109a4 4 0 0 1-4-4V43a4 4 0 0 1 1.172-2.828" clip-path="url(#a)"/></g><defs><clipPath id="b"><path d="M76 63h1048a4 4 0 0 1 4 4v496a4 4 0 0 1-4 4H76a4 4 0 0 1-4-4V67a4 4 0 0 1 4-4"/></clipPath></defs><path fill="#fefbfb" d="M76 63h1048a4 4 0 0 1 4 4v496a4 4 0 0 1-4 4H76a4 4 0 0 1-4-4V67a4 4 0 0 1 4-4"/><path fill="none" stroke="#000" stroke-width="8" d="M73.172 64.172A4 4 0 0 1 76 63h1048a4 4 0 0 1 4 4v496a4 4 0 0 1-4 4H76a4 4 0 0 1-4-4V67a4 4 0 0 1 1.172-2.828" clip-path="url(#b)"/><clipPath id="c"><path d="M128 103h944v94H128z"/></clipPath><mask id="d"><path fill="#fff" d="M128 103h944v94H128z"/></mask><path d="M155.9 183h-12.6l-13.4-37.2h11.3l4.8 15.9 3.5 12.4h.6l3.5-12.4 4.9-15.9h10.8L155.9 183Zm43.2 0v-6.8h-.5q-1.2 3.2-3.8 5.4-2.6 2.2-7.1 2.2-2.7 0-4.9-.9t-3.8-2.7q-1.6-1.8-2.5-4.4-.9-2.6-.9-6v-24h10.6v22.6q0 7.2 6.3 7.2 1.2 0 2.4-.3t2.1-1q.9-.7 1.5-1.7t.6-2.4v-24.4h10.6V183h-10.6Zm37.9.8q-9.4 0-14.2-5.2-4.8-5.2-4.8-14.1 0-4.5 1.3-8.2 1.2-3.6 3.6-6.1 2.3-2.6 5.6-3.9 3.4-1.4 7.6-1.4 4.1 0 7.5 1.4 3.3 1.3 5.6 3.7 2.3 2.5 3.5 6 1.3 3.5 1.3 7.8v3.2h-25.4v.6q0 3.6 2.2 5.8 2.2 2.2 6.6 2.2 3.3 0 5.7-1.3 2.3-1.2 4.1-3.3l5.7 6.3q-2.1 2.6-6 4.6-3.9 1.9-9.9 1.9Zm-.9-31.2q-3.4 0-5.5 2.1-2 2.1-2 5.7v.6h15v-.6q0-3.7-2-5.7-2-2.1-5.5-2.1Zm36.4 0h4.8q4.1 0 6-1.6 1.9-1.6 1.9-3.9v-.5q0-2.7-1.8-4.4-1.8-1.6-5.2-1.6-3.1 0-5.8 1.6-2.7 1.5-4.6 4.4l-6.8-6.3q1.4-1.9 3.2-3.5 1.7-1.5 3.8-2.6 2.1-1.1 4.7-1.8 2.6-.6 5.9-.6 4.1 0 7.4 1 3.4.9 5.7 2.7 2.3 1.7 3.6 4.2 1.3 2.4 1.3 5.5 0 2.3-.8 4.3-.8 1.9-2.1 3.4-1.3 1.4-3.1 2.3-1.8.9-3.8 1.3v.4q4.6.8 7.7 3.8 3.1 3.1 3.1 8.3 0 3.4-1.4 6.1-1.4 2.7-4 4.7-2.6 1.9-6.2 3-3.6 1-8.1 1-3.8 0-6.7-.8-2.9-.8-5.2-2.1-2.2-1.3-3.8-3.1-1.6-1.8-2.9-3.6l8-6.2q1.7 3.1 4.2 5.1 2.4 1.9 6.6 1.9 3.9 0 6-1.8t2.1-4.9v-.5q0-3.1-2.4-4.7-2.4-1.5-6.6-1.5h-4.7v-9Zm69.2 30.4h-38.6v-56.2h38.6V183Zm-31.4-49v41.8h24.2V134h-24.2Zm74.6 49h-38.6v-56.2h38.6V183Zm-31.4-49v41.8h24.2V134h-24.2Zm74.6 49h-38.6v-56.2h38.6V183Zm-31.4-49v41.8h24.2V134h-24.2Zm74.6 49h-38.6v-56.2h38.6V183Zm-31.4-49v41.8h24.2V134h-24.2Zm74.6 49h-38.6v-56.2h38.6V183Zm-31.4-49v41.8h24.2V134h-24.2Z" clip-path="url(#c)" mask="url(#d)"/><path d="M130.7 520.3v-20.7h2.2v8.6h.1q1.4-2.7 4.5-2.7 2.6 0 4.1 2 1.5 2 1.5 5.5 0 3.6-1.5 5.6-1.5 2-4.1 2-3.1 0-4.5-2.7h-.1v2.4h-2.2Zm5.9-1.7q2 0 3-1.2 1.1-1.2 1.1-3.1v-2.5q0-1.9-1.1-3.1-1-1.2-3-1.2-.8 0-1.4.2-.7.2-1.2.5-.5.4-.8 1-.3.5-.3 1.2v5.3q0 .7.3 1.2.3.6.8.9.5.4 1.2.6.6.2 1.4.2Zm18.8-6.7 2.5-6.1h2.2l-7.2 17.6q-.2.7-.5 1.1-.3.5-.7.8-.5.3-1 .4-.6.2-1.4.2h-2.2V524h3.4l1.6-4-5.8-14.2h2.3l2.4 6.1 2.2 5.5h.1l2.1-5.5Z"/><clipPath id="e"><path d="M178 489h101v36H178z"/></clipPath><mask id="f"><path fill="#fff" d="M178 489h101v36H178z"/></mask><path d="M194 520.1h-2.4q-1.3 0-2-.7-.8-.6-1-1.9h-.1q-.4 1.5-1.6 2.2-1.1.7-2.8.7-2.1 0-3.4-1.1-1.2-1.1-1.2-3.2 0-2.3 1.6-3.3 1.7-1.1 4.9-1.1h2.3v-.8q0-1.3-.6-1.9-.6-.7-2.1-.7-1.3 0-2.1.5t-1.4 1.4l-2.3-2.1q.8-1.2 2.3-2 1.6-.8 4-.8 3 0 4.7 1.4 1.6 1.3 1.6 4.1v6.3h1.6v3Zm-8.3-2.4q1.1 0 1.8-.5.8-.6.8-1.6v-1.7h-2.2q-2.6 0-2.6 1.7v.6q0 .7.6 1.1.6.4 1.6.4Zm11.7 8v-3.2h5.5v-13.6h-5.6v-3.3h9.8v15.9q0 1.8-1.1 3t-3.3 1.2h-5.3Zm7.6-21.9q-1.4 0-2-.6-.5-.6-.5-1.4v-.8q0-.8.5-1.4.6-.5 2-.5t1.9.5q.6.6.6 1.4v.8q0 .8-.6 1.4-.5.6-1.9.6Zm12.6 16.3h-4.2v-14.5h4.2v2.7h.1l.6-1.2q.4-.5.9-.9t1.2-.7q.7-.2 1.6-.2 1 0 1.9.4.9.3 1.5 1t.9 1.7q.4 1 .4 2.3v9.4h-4.2v-8.8q0-2.8-2.4-2.8-.5 0-.9.1-.5.2-.9.4-.3.3-.5.7-.2.4-.2.9v9.5Zm24.3 0h-4v-3.8h-8.8v-3.5l7.8-12.3h5v12.6h2.5v3.2h-2.5v3.8Zm-4.3-15.2-5.1 8.2h5.4v-8.2h-.3Zm16 15.5q-3.9 0-5.8-2.6-1.8-2.7-1.8-7.5t1.8-7.4q1.9-2.7 5.8-2.7t5.8 2.7q1.8 2.6 1.8 7.4 0 4.8-1.8 7.5-1.9 2.6-5.8 2.6Zm0-3.3q1.9 0 2.6-1.3.8-1.3.8-3.7v-3.6q0-2.4-.8-3.7-.7-1.3-2.6-1.3-1.9 0-2.6 1.3-.8 1.3-.8 3.7v3.6q0 2.4.8 3.7.7 1.3 2.6 1.3Zm0-5.1q-1 0-1.4-.4-.3-.4-.3-1v-.6q0-.5.3-.9.4-.4 1.4-.4 1 0 1.4.4.3.4.3.9v.6q0 .6-.3 1-.4.4-1.4.4Zm21.9 8.1h-4v-3.8h-8.8v-3.5l7.8-12.3h5v12.6h2.5v3.2h-2.5v3.8Zm-4.3-15.2-5.1 8.2h5.4v-8.2h-.3Z" clip-path="url(#e)" mask="url(#f)"/><clipPath id="g"><path d="M1038 489h34v36h-34z"/></clipPath><mask id="h"><path fill="#fff" d="M1038 489h34v36h-34z"/></mask><path d="M1053.9 520.1h-15v-21.8h15v21.8Zm-12.2-19v16.2h9.4v-16.2h-9.4Zm29 19h-15v-21.8h15v21.8Zm-12.2-19v16.2h9.4v-16.2h-9.4Z" clip-path="url(#g)" mask="url(#h)"/></svg>